<svg width="64" height="40" viewBox="0 0 64 40" fill="none" xmlns="http://www.w3.org/2000/svg">
<path d="M2.22222 0C1.01674 0 0 1.01675 0 2.22222V37.7778C0 38.9833 1.01674 40 2.22222 40H61.4815C62.687 40 63.7037 38.9833 63.7037 37.7778V2.22222C63.7037 1.01675 62.687 0 61.4815 0H2.22222ZM2.96296 2.96296H60.7407V5.16208L31.8519 26.2963L2.96296 5.16208V2.96296ZM2.96296 8.84259L30.9722 29.3287C31.227 29.5167 31.5353 29.6181 31.8519 29.6181C32.1684 29.6181 32.4767 29.5167 32.7315 29.3287L60.7407 8.84259V37.037H2.96296V8.84259Z" fill="white"/>
</svg>
