<svg width="40" height="40" viewBox="0 0 40 40" fill="none" xmlns="http://www.w3.org/2000/svg">
<path d="M0.739646 18.1215C0.784108 18.1215 0.873031 18.1215 0.917493 18.1215C1.36211 18.1215 1.7178 17.8108 1.80673 17.367C2.02903 16.1244 2.42919 14.8819 2.91827 13.6836C3.89642 11.2428 5.36366 9.06829 7.23105 7.2044C9.09844 5.34051 11.2771 3.87603 13.7224 2.8997C14.9229 2.41154 16.1678 2.05652 17.4128 1.79025C17.9018 1.70149 18.2131 1.21333 18.1242 0.725166C18.0352 0.237004 17.5462 -0.0736445 17.0571 0.0151122C15.6788 0.281382 14.3004 0.680787 13.0111 1.21333C10.3434 2.27841 7.94243 3.87603 5.94166 5.91743C3.89642 7.95884 2.34027 10.3109 1.22872 12.9736C0.695185 14.2606 0.29503 15.6363 0.0282598 17.012C-0.105125 17.5446 0.250568 18.0327 0.739646 18.1215Z" fill="white"/>
<path d="M10.1658 10.2222C8.69857 11.6867 7.58703 13.3731 6.78672 15.2813C6.3421 16.3464 6.03087 17.5003 5.85302 18.6541C5.7641 19.1423 6.11979 19.6304 6.60887 19.6748C6.65333 19.6748 6.69779 19.6748 6.74226 19.6748C7.18687 19.6748 7.54257 19.3642 7.63149 18.9204C7.80934 17.8997 8.07611 16.9233 8.47626 15.947C9.14318 14.2606 10.1658 12.7518 11.4552 11.4648C12.7446 10.1778 14.2563 9.15714 15.9458 8.49146C16.924 8.09206 17.9021 7.82579 18.9247 7.64827C19.4138 7.55952 19.7695 7.11573 19.6806 6.62757C19.5917 6.13941 19.1471 5.78438 18.658 5.87314C17.502 6.05065 16.3904 6.3613 15.2789 6.80508C13.3226 7.60389 11.633 8.75773 10.1658 10.2222Z" fill="white"/>
<path d="M11.7215 20.2961C11.6771 20.7842 12.0327 21.228 12.5663 21.2724C12.6108 21.2724 12.6108 21.2724 12.6552 21.2724C13.0998 21.2724 13.5 20.9174 13.5444 20.4292C13.6778 18.6541 14.4781 16.9677 15.7231 15.7251C16.968 14.4825 18.6575 13.6837 20.436 13.5505C20.9251 13.5062 21.3252 13.0624 21.2808 12.5742C21.2363 12.0861 20.7917 11.6867 20.3026 11.731C18.0795 11.9085 16.0343 12.8849 14.4337 14.4381C12.8331 15.9914 11.8994 18.1215 11.7215 20.2961Z" fill="white"/>
<path d="M23.5481 23.5804C21.8586 25.2667 20.0357 26.6868 18.5684 27.4413C17.2346 28.1513 16.1675 28.3288 15.8118 27.9738C15.634 27.7963 15.5006 27.6188 15.3227 27.3969C14.8781 26.8644 14.4335 26.2431 13.6332 25.9768C12.6106 25.6218 11.5435 25.8437 10.8321 26.0212C8.74242 26.5093 6.34149 27.1306 3.94056 28.1069C3.18471 28.4176 2.3844 28.7726 1.67301 29.3052C0.828242 29.9708 0.294703 30.814 0.116856 31.7016C-0.149914 32.9886 0.383626 34.4087 1.53963 35.7844C2.47332 36.8495 3.58486 37.7814 4.87425 38.4915C6.16364 39.2015 7.54195 39.6453 8.92026 39.8672C9.54273 39.956 10.1207 40.0003 10.7877 40.0003C13.5887 40.0003 16.701 39.1128 20.1246 37.2933C23.7705 35.385 27.1051 32.9442 30.0395 30.104C32.9296 27.175 35.3305 23.8466 37.2868 20.2076C39.5099 15.9917 40.3546 12.3083 39.8656 9.02427C39.6433 7.60416 39.1986 6.22843 38.4873 4.98584C37.7759 3.69887 36.8866 2.58941 35.7751 1.65746C34.3968 0.459247 32.974 -0.028915 31.6846 0.237355C30.7954 0.414868 29.9062 0.947408 29.2837 1.7906C28.7502 2.50065 28.3945 3.29946 28.0832 4.05389C27.1495 6.45032 26.4826 8.89113 25.9935 10.9325C25.8157 11.6426 25.5489 12.7077 25.9491 13.7284C26.2603 14.5272 26.8383 15.0153 27.3718 15.4147C27.5942 15.5923 27.772 15.7254 27.9498 15.9029C28.35 16.3023 28.1277 17.3674 27.4163 18.6544C26.616 20.0745 25.2377 21.894 23.5481 23.5804ZM29.2392 14.5272C29.0169 14.3053 28.7502 14.0834 28.5278 13.9059C28.1277 13.5952 27.772 13.329 27.6831 13.0183C27.5052 12.5745 27.6386 11.9532 27.772 11.2876C28.2611 9.29053 28.8835 6.93848 29.7728 4.63081C30.084 3.92076 30.3508 3.29946 30.7065 2.8113C31.1066 2.32314 31.5512 2.01249 32.0403 1.87935C32.974 1.70184 33.9522 2.32314 34.5746 2.90005C36.3976 4.49767 37.6869 6.76097 38.0426 9.20178C38.4873 12.1307 37.6869 15.4147 35.6417 19.2757C33.8188 22.7372 31.5068 25.9324 28.7502 28.7282C25.9491 31.5685 22.7923 33.8761 19.2798 35.6956C15.4117 37.737 12.077 38.4915 9.18703 38.0921C6.7861 37.737 4.4741 36.4945 2.87348 34.6306C2.29548 33.9649 1.67301 32.9886 1.85086 32.101C1.93978 31.6128 2.25102 31.1691 2.78455 30.7696C3.27363 30.3702 3.85163 30.104 4.60748 29.8377C6.87503 28.9501 9.27596 28.3288 11.2767 27.8407C11.9437 27.6632 12.5661 27.5744 13.0107 27.7519C13.322 27.8851 13.5887 28.1957 13.9 28.5951C14.0778 28.817 14.3001 29.0833 14.5224 29.3052C14.8781 29.6602 15.4561 30.0152 16.3898 30.0152C16.5232 30.0152 16.7011 30.0152 16.8344 29.9708C17.5903 29.8821 18.4351 29.5714 19.4132 29.0833C21.1028 28.1957 23.0146 26.6868 24.8375 24.8673C26.6605 23.0478 28.1722 21.1396 29.0614 19.4532C29.5505 18.5212 29.8617 17.6337 29.9506 16.8792C30.084 15.681 29.6394 14.9266 29.2392 14.5272Z" fill="white"/>
</svg>
